[
    {
        "group": "Rhythmic Challenges",
        "subgroup": "Triplets & Shuffles",
        "title": "Ex 1: Basic Shuffle Groove",
        "bpm": 110,
        "time_signature": "4/4",
        "length_in_measures": 2,
        "events": [
            {
                "midi_note": 36,
                "start_time": 0.0,
                "duration": 0.166,
                "velocity": 120
            },
            {
                "midi_note": 42,
                "start_time": 0.0,
                "duration": 0.166,
                "velocity": 100
            },
            {
                "midi_note": 42,
                "start_time": 0.332,
                "duration": 0.166,
                "velocity": 80
            },
            {
                "midi_note": 42,
                "start_time": 0.5,
                "duration": 0.166,
                "velocity": 100
            },
            {
                "midi_note": 42,
                "start_time": 0.832,
                "duration": 0.166,
                "velocity": 80
            },
            {
                "midi_note": 38,
                "start_time": 1.0,
                "duration": 0.166,
                "velocity": 120
            },
            {
                "midi_note": 42,
                "start_time": 1.0,
                "duration": 0.166,
                "velocity": 100
            },
            {
                "midi_note": 42,
                "start_time": 1.332,
                "duration": 0.166,
                "velocity": 80
            },
            {
                "midi_note": 42,
                "start_time": 1.5,
                "duration": 0.166,
                "velocity": 100
            },
            {
                "midi_note": 42,
                "start_time": 1.832,
                "duration": 0.166,
                "velocity": 80
            },
            {
                "midi_note": 36,
                "start_time": 2.0,
                "duration": 0.166,
                "velocity": 120
            },
            {
                "midi_note": 42,
                "start_time": 2.0,
                "duration": 0.166,
                "velocity": 100
            },
            {
                "midi_note": 42,
                "start_time": 2.332,
                "duration": 0.166,
                "velocity": 80
            },
            {
                "midi_note": 42,
                "start_time": 2.5,
                "duration": 0.166,
                "velocity": 100
            },
            {
                "midi_note": 42,
                "start_time": 2.832,
                "duration": 0.166,
                "velocity": 80
            },
            {
                "midi_note": 38,
                "start_time": 3.0,
                "duration": 0.166,
                "velocity": 120
            },
            {
                "midi_note": 42,
                "start_time": 3.0,
                "duration": 0.166,
                "velocity": 100
            },
            {
                "midi_note": 42,
                "start_time": 3.332,
                "duration": 0.166,
                "velocity": 80
            },
            {
                "midi_note": 42,
                "start_time": 3.5,
                "duration": 0.166,
                "velocity": 100
            },
            {
                "midi_note": 42,
                "start_time": 3.832,
                "duration": 0.166,
                "velocity": 80
            },
            {
                "midi_note": 36,
                "start_time": 4.0,
                "duration": 0.166,
                "velocity": 120
            },
            {
                "midi_note": 42,
                "start_time": 4.0,
                "duration": 0.166,
                "velocity": 100
            },
            {
                "midi_note": 42,
                "start_time": 4.332,
                "duration": 0.166,
                "velocity": 80
            },
            {
                "midi_note": 42,
                "start_time": 4.5,
                "duration": 0.166,
                "velocity": 100
            },
            {
                "midi_note": 42,
                "start_time": 4.832,
                "duration": 0.166,
                "velocity": 80
            },
            {
                "midi_note": 38,
                "start_time": 5.0,
                "duration": 0.166,
                "velocity": 120
            },
            {
                "midi_note": 42,
                "start_time": 5.0,
                "duration": 0.166,
                "velocity": 100
            },
            {
                "midi_note": 42,
                "start_time": 5.332,
                "duration": 0.166,
                "velocity": 80
            },
            {
                "midi_note": 42,
                "start_time": 5.5,
                "duration": 0.166,
                "velocity": 100
            },
            {
                "midi_note": 42,
                "start_time": 5.832,
                "duration": 0.166,
                "velocity": 80
            },
            {
                "midi_note": 36,
                "start_time": 6.0,
                "duration": 0.166,
                "velocity": 120
            },
            {
                "midi_note": 42,
                "start_time": 6.0,
                "duration": 0.166,
                "velocity": 100
            },
            {
                "midi_note": 42,
                "start_time": 6.332,
                "duration": 0.166,
                "velocity": 80
            },
            {
                "midi_note": 42,
                "start_time": 6.5,
                "duration": 0.166,
                "velocity": 100
            },
            {
                "midi_note": 42,
                "start_time": 6.832,
                "duration": 0.166,
                "velocity": 80
            },
            {
                "midi_note": 38,
                "start_time": 7.0,
                "duration": 0.166,
                "velocity": 120
            },
            {
                "midi_note": 42,
                "start_time": 7.0,
                "duration": 0.166,
                "velocity": 100
            },
            {
                "midi_note": 42,
                "start_time": 7.332,
                "duration": 0.166,
                "velocity": 80
            },
            {
                "midi_note": 42,
                "start_time": 7.5,
                "duration": 0.166,
                "velocity": 100
            },
            {
                "midi_note": 42,
                "start_time": 7.832,
                "duration": 0.166,
                "velocity": 80
            }
        ]
    },
    {
        "group": "Rhythmic Challenges",
        "subgroup": "Triplets & Shuffles",
        "title": "Ex 2: 12/8 Blues Feel",
        "bpm": 80,
        "time_signature": "12/8",
        "length_in_measures": 2,
        "events": [
            {
                "midi_note": 36,
                "start_time": 0.0,
                "duration": 0.33,
                "velocity": 120
            },
            {
                "midi_note": 51,
                "start_time": 0.0,
                "duration": 0.33,
                "velocity": 100
            },
            {
                "midi_note": 51,
                "start_time": 0.33,
                "duration": 0.33,
                "velocity": 80
            },
            {
                "midi_note": 51,
                "start_time": 0.66,
                "duration": 0.33,
                "velocity": 90
            },
            {
                "midi_note": 38,
                "start_time": 1.0,
                "duration": 0.33,
                "velocity": 120
            },
            {
                "midi_note": 51,
                "start_time": 1.0,
                "duration": 0.33,
                "velocity": 100
            },
            {
                "midi_note": 51,
                "start_time": 1.33,
                "duration": 0.33,
                "velocity": 80
            },
            {
                "midi_note": 51,
                "start_time": 1.66,
                "duration": 0.33,
                "velocity": 90
            },
            {
                "midi_note": 36,
                "start_time": 2.0,
                "duration": 0.33,
                "velocity": 120
            },
            {
                "midi_note": 51,
                "start_time": 2.0,
                "duration": 0.33,
                "velocity": 100
            },
            {
                "midi_note": 51,
                "start_time": 2.33,
                "duration": 0.33,
                "velocity": 80
            },
            {
                "midi_note": 51,
                "start_time": 2.66,
                "duration": 0.33,
                "velocity": 90
            },
            {
                "midi_note": 38,
                "start_time": 3.0,
                "duration": 0.33,
                "velocity": 120
            },
            {
                "midi_note": 51,
                "start_time": 3.0,
                "duration": 0.33,
                "velocity": 100
            },
            {
                "midi_note": 51,
                "start_time": 3.33,
                "duration": 0.33,
                "velocity": 80
            },
            {
                "midi_note": 51,
                "start_time": 3.66,
                "duration": 0.33,
                "velocity": 90
            },
            {
                "midi_note": 36,
                "start_time": 4.0,
                "duration": 0.33,
                "velocity": 120
            },
            {
                "midi_note": 51,
                "start_time": 4.0,
                "duration": 0.33,
                "velocity": 100
            },
            {
                "midi_note": 51,
                "start_time": 4.33,
                "duration": 0.33,
                "velocity": 80
            },
            {
                "midi_note": 51,
                "start_time": 4.66,
                "duration": 0.33,
                "velocity": 90
            },
            {
                "midi_note": 38,
                "start_time": 5.0,
                "duration": 0.33,
                "velocity": 120
            },
            {
                "midi_note": 51,
                "start_time": 5.0,
                "duration": 0.33,
                "velocity": 100
            },
            {
                "midi_note": 51,
                "start_time": 5.33,
                "duration": 0.33,
                "velocity": 80
            },
            {
                "midi_note": 51,
                "start_time": 5.66,
                "duration": 0.33,
                "velocity": 90
            },
            {
                "midi_note": 36,
                "start_time": 6.0,
                "duration": 0.33,
                "velocity": 120
            },
            {
                "midi_note": 51,
                "start_time": 6.0,
                "duration": 0.33,
                "velocity": 100
            },
            {
                "midi_note": 51,
                "start_time": 6.33,
                "duration": 0.33,
                "velocity": 80
            },
            {
                "midi_note": 51,
                "start_time": 6.66,
                "duration": 0.33,
                "velocity": 90
            },
            {
                "midi_note": 38,
                "start_time": 7.0,
                "duration": 0.33,
                "velocity": 120
            },
            {
                "midi_note": 51,
                "start_time": 7.0,
                "duration": 0.33,
                "velocity": 100
            },
            {
                "midi_note": 51,
                "start_time": 7.33,
                "duration": 0.33,
                "velocity": 80
            },
            {
                "midi_note": 51,
                "start_time": 7.66,
                "duration": 0.33,
                "velocity": 90
            }
        ]
    },
    {
        "group": "Rhythmic Challenges",
        "subgroup": "Syncopation & Displacement",
        "title": "Ex 3: Snare Displacement (Backbeat on 'and' of 2)",
        "bpm": 100,
        "time_signature": "4/4",
        "length_in_measures": 2,
        "events": [
            {
                "midi_note": 36,
                "start_time": 0.0,
                "duration": 0.25,
                "velocity": 120
            },
            {
                "midi_note": 42,
                "start_time": 0.0,
                "duration": 0.25,
                "velocity": 100
            },
            {
                "midi_note": 42,
                "start_time": 0.5,
                "duration": 0.25,
                "velocity": 100
            },
            {
                "midi_note": 42,
                "start_time": 1.0,
                "duration": 0.25,
                "velocity": 100
            },
            {
                "midi_note": 38,
                "start_time": 1.5,
                "duration": 0.25,
                "velocity": 120
            },
            {
                "midi_note": 42,
                "start_time": 1.5,
                "duration": 0.25,
                "velocity": 100
            },
            {
                "midi_note": 36,
                "start_time": 2.0,
                "duration": 0.25,
                "velocity": 120
            },
            {
                "midi_note": 42,
                "start_time": 2.0,
                "duration": 0.25,
                "velocity": 100
            },
            {
                "midi_note": 42,
                "start_time": 2.5,
                "duration": 0.25,
                "velocity": 100
            },
            {
                "midi_note": 38,
                "start_time": 3.0,
                "duration": 0.25,
                "velocity": 120
            },
            {
                "midi_note": 42,
                "start_time": 3.0,
                "duration": 0.25,
                "velocity": 100
            },
            {
                "midi_note": 42,
                "start_time": 3.5,
                "duration": 0.25,
                "velocity": 100
            },
            {
                "midi_note": 36,
                "start_time": 4.0,
                "duration": 0.25,
                "velocity": 120
            },
            {
                "midi_note": 42,
                "start_time": 4.0,
                "duration": 0.25,
                "velocity": 100
            },
            {
                "midi_note": 42,
                "start_time": 4.5,
                "duration": 0.25,
                "velocity": 100
            },
            {
                "midi_note": 42,
                "start_time": 5.0,
                "duration": 0.25,
                "velocity": 100
            },
            {
                "midi_note": 38,
                "start_time": 5.5,
                "duration": 0.25,
                "velocity": 120
            },
            {
                "midi_note": 42,
                "start_time": 5.5,
                "duration": 0.25,
                "velocity": 100
            },
            {
                "midi_note": 36,
                "start_time": 6.0,
                "duration": 0.25,
                "velocity": 120
            },
            {
                "midi_note": 42,
                "start_time": 6.0,
                "duration": 0.25,
                "velocity": 100
            },
            {
                "midi_note": 42,
                "start_time": 6.5,
                "duration": 0.25,
                "velocity": 100
            },
            {
                "midi_note": 38,
                "start_time": 7.0,
                "duration": 0.25,
                "velocity": 120
            },
            {
                "midi_note": 42,
                "start_time": 7.0,
                "duration": 0.25,
                "velocity": 100
            },
            {
                "midi_note": 42,
                "start_time": 7.5,
                "duration": 0.25,
                "velocity": 100
            }
        ]
    },
    {
        "group": "Rhythmic Challenges",
        "subgroup": "Syncopation & Displacement",
        "title": "Ex 4: Kick Displacement (Over the Barline)",
        "bpm": 100,
        "time_signature": "4/4",
        "length_in_measures": 2,
        "events": [
            {
                "midi_note": 36,
                "start_time": 0.0,
                "duration": 0.25,
                "velocity": 120
            },
            {
                "midi_note": 42,
                "start_time": 0.0,
                "duration": 0.25,
                "velocity": 100
            },
            {
                "midi_note": 42,
                "start_time": 0.5,
                "duration": 0.25,
                "velocity": 100
            },
            {
                "midi_note": 38,
                "start_time": 1.0,
                "duration": 0.25,
                "velocity": 120
            },
            {
                "midi_note": 42,
                "start_time": 1.0,
                "duration": 0.25,
                "velocity": 100
            },
            {
                "midi_note": 36,
                "start_time": 1.5,
                "duration": 0.25,
                "velocity": 120
            },
            {
                "midi_note": 42,
                "start_time": 1.5,
                "duration": 0.25,
                "velocity": 100
            },
            {
                "midi_note": 42,
                "start_time": 2.0,
                "duration": 0.25,
                "velocity": 100
            },
            {
                "midi_note": 42,
                "start_time": 2.5,
                "duration": 0.25,
                "velocity": 100
            },
            {
                "midi_note": 38,
                "start_time": 3.0,
                "duration": 0.25,
                "velocity": 120
            },
            {
                "midi_note": 42,
                "start_time": 3.0,
                "duration": 0.25,
                "velocity": 100
            },
            {
                "midi_note": 36,
                "start_time": 3.5,
                "duration": 0.25,
                "velocity": 120
            },
            {
                "midi_note": 42,
                "start_time": 3.5,
                "duration": 0.25,
                "velocity": 100
            },
            {
                "midi_note": 42,
                "start_time": 4.0,
                "duration": 0.25,
                "velocity": 100
            },
            {
                "midi_note": 42,
                "start_time": 4.5,
                "duration": 0.25,
                "velocity": 100
            },
            {
                "midi_note": 38,
                "start_time": 5.0,
                "duration": 0.25,
                "velocity": 120
            },
            {
                "midi_note": 42,
                "start_time": 5.0,
                "duration": 0.25,
                "velocity": 100
            },
            {
                "midi_note": 36,
                "start_time": 5.5,
                "duration": 0.25,
                "velocity": 120
            },
            {
                "midi_note": 42,
                "start_time": 5.5,
                "duration": 0.25,
                "velocity": 100
            },
            {
                "midi_note": 42,
                "start_time": 6.0,
                "duration": 0.25,
                "velocity": 100
            },
            {
                "midi_note": 42,
                "start_time": 6.5,
                "duration": 0.25,
                "velocity": 100
            },
            {
                "midi_note": 38,
                "start_time": 7.0,
                "duration": 0.25,
                "velocity": 120
            },
            {
                "midi_note": 42,
                "start_time": 7.0,
                "duration": 0.25,
                "velocity": 100
            },
            {
                "midi_note": 36,
                "start_time": 7.5,
                "duration": 0.25,
                "velocity": 120
            },
            {
                "midi_note": 42,
                "start_time": 7.5,
                "duration": 0.25,
                "velocity": 100
            }
        ]
    },
    {
        "group": "Rhythmic Challenges",
        "subgroup": "Irregular Exercises",
        "title": "Ex 5: 3-Over-4 Polyrhythm (Kick)",
        "bpm": 100,
        "time_signature": "4/4",
        "length_in_measures": 2,
        "events": [
            {
                "midi_note": 36,
                "start_time": 0.0,
                "duration": 0.25,
                "velocity": 120
            },
            {
                "midi_note": 42,
                "start_time": 0.0,
                "duration": 0.25,
                "velocity": 100
            },
            {
                "midi_note": 42,
                "start_time": 0.5,
                "duration": 0.25,
                "velocity": 100
            },
            {
                "midi_note": 36,
                "start_time": 0.75,
                "duration": 0.25,
                "velocity": 120
            },
            {
                "midi_note": 38,
                "start_time": 1.0,
                "duration": 0.25,
                "velocity": 120
            },
            {
                "midi_note": 42,
                "start_time": 1.0,
                "duration": 0.25,
                "velocity": 100
            },
            {
                "midi_note": 36,
                "start_time": 1.5,
                "duration": 0.25,
                "velocity": 120
            },
            {
                "midi_note": 42,
                "start_time": 1.5,
                "duration": 0.25,
                "velocity": 100
            },
            {
                "midi_note": 42,
                "start_time": 2.0,
                "duration": 0.25,
                "velocity": 100
            },
            {
                "midi_note": 36,
                "start_time": 2.25,
                "duration": 0.25,
                "velocity": 120
            },
            {
                "midi_note": 42,
                "start_time": 2.5,
                "duration": 0.25,
                "velocity": 100
            },
            {
                "midi_note": 38,
                "start_time": 3.0,
                "duration": 0.25,
                "velocity": 120
            },
            {
                "midi_note": 36,
                "start_time": 3.0,
                "duration": 0.25,
                "velocity": 120
            },
            {
                "midi_note": 42,
                "start_time": 3.0,
                "duration": 0.25,
                "velocity": 100
            },
            {
                "midi_note": 42,
                "start_time": 3.5,
                "duration": 0.25,
                "velocity": 100
            },
            {
                "midi_note": 36,
                "start_time": 3.75,
                "duration": 0.25,
                "velocity": 120
            },
            {
                "midi_note": 42,
                "start_time": 4.0,
                "duration": 0.25,
                "velocity": 100
            },
            {
                "midi_note": 42,
                "start_time": 4.5,
                "duration": 0.25,
                "velocity": 100
            },
            {
                "midi_note": 36,
                "start_time": 4.5,
                "duration": 0.25,
                "velocity": 120
            },
            {
                "midi_note": 38,
                "start_time": 5.0,
                "duration": 0.25,
                "velocity": 120
            },
            {
                "midi_note": 42,
                "start_time": 5.0,
                "duration": 0.25,
                "velocity": 100
            },
            {
                "midi_note": 36,
                "start_time": 5.25,
                "duration": 0.25,
                "velocity": 120
            },
            {
                "midi_note": 42,
                "start_time": 5.5,
                "duration": 0.25,
                "velocity": 100
            },
            {
                "midi_note": 36,
                "start_time": 6.0,
                "duration": 0.25,
                "velocity": 120
            },
            {
                "midi_note": 42,
                "start_time": 6.0,
                "duration": 0.25,
                "velocity": 100
            },
            {
                "midi_note": 42,
                "start_time": 6.5,
                "duration": 0.25,
                "velocity": 100
            },
            {
                "midi_note": 36,
                "start_time": 6.75,
                "duration": 0.25,
                "velocity": 120
            },
            {
                "midi_note": 38,
                "start_time": 7.0,
                "duration": 0.25,
                "velocity": 120
            },
            {
                "midi_note": 42,
                "start_time": 7.0,
                "duration": 0.25,
                "velocity": 100
            },
            {
                "midi_note": 36,
                "start_time": 7.5,
                "duration": 0.25,
                "velocity": 120
            },
            {
                "midi_note": 42,
                "start_time": 7.5,
                "duration": 0.25,
                "velocity": 100
            }
        ]
    },
    {
        "group": "Rhythmic Challenges",
        "subgroup": "Irregular Exercises",
        "title": "Ex 6: 5-Stroke Roll Groove",
        "bpm": 90,
        "time_signature": "4/4",
        "length_in_measures": 2,
        "events": [
            {
                "midi_note": 36,
                "start_time": 0.0,
                "duration": 0.25,
                "velocity": 120
            },
            {
                "midi_note": 38,
                "start_time": 0.0,
                "duration": 0.25,
                "velocity": 120
            },
            {
                "midi_note": 38,
                "start_time": 0.25,
                "duration": 0.25,
                "velocity": 40
            },
            {
                "midi_note": 38,
                "start_time": 0.5,
                "duration": 0.25,
                "velocity": 40
            },
            {
                "midi_note": 38,
                "start_time": 0.75,
                "duration": 0.25,
                "velocity": 120
            },
            {
                "midi_note": 36,
                "start_time": 0.75,
                "duration": 0.25,
                "velocity": 120
            },
            {
                "midi_note": 38,
                "start_time": 1.0,
                "duration": 0.25,
                "velocity": 120
            },
            {
                "midi_note": 38,
                "start_time": 1.25,
                "duration": 0.25,
                "velocity": 40
            },
            {
                "midi_note": 38,
                "start_time": 1.5,
                "duration": 0.25,
                "velocity": 40
            },
            {
                "midi_note": 38,
                "start_time": 1.75,
                "duration": 0.25,
                "velocity": 120
            },
            {
                "midi_note": 36,
                "start_time": 1.75,
                "duration": 0.25,
                "velocity": 120
            },
            {
                "midi_note": 38,
                "start_time": 2.0,
                "duration": 0.25,
                "velocity": 120
            },
            {
                "midi_note": 38,
                "start_time": 2.25,
                "duration": 0.25,
                "velocity": 40
            },
            {
                "midi_note": 38,
                "start_time": 2.5,
                "duration": 0.25,
                "velocity": 40
            },
            {
                "midi_note": 38,
                "start_time": 2.75,
                "duration": 0.25,
                "velocity": 120
            },
            {
                "midi_note": 36,
                "start_time": 2.75,
                "duration": 0.25,
                "velocity": 120
            },
            {
                "midi_note": 38,
                "start_time": 3.0,
                "duration": 0.25,
                "velocity": 120
            },
            {
                "midi_note": 38,
                "start_time": 3.25,
                "duration": 0.25,
                "velocity": 40
            },
            {
                "midi_note": 38,
                "start_time": 3.5,
                "duration": 0.25,
                "velocity": 40
            },
            {
                "midi_note": 38,
                "start_time": 3.75,
                "duration": 0.25,
                "velocity": 120
            },
            {
                "midi_note": 36,
                "start_time": 3.75,
                "duration": 0.25,
                "velocity": 120
            },
            {
                "midi_note": 38,
                "start_time": 4.0,
                "duration": 0.25,
                "velocity": 120
            },
            {
                "midi_note": 38,
                "start_time": 4.25,
                "duration": 0.25,
                "velocity": 40
            },
            {
                "midi_note": 38,
                "start_time": 4.5,
                "duration": 0.25,
                "velocity": 40
            },
            {
                "midi_note": 38,
                "start_time": 4.75,
                "duration": 0.25,
                "velocity": 120
            },
            {
                "midi_note": 36,
                "start_time": 4.75,
                "duration": 0.25,
                "velocity": 120
            },
            {
                "midi_note": 38,
                "start_time": 5.0,
                "duration": 0.25,
                "velocity": 120
            },
            {
                "midi_note": 38,
                "start_time": 5.25,
                "duration": 0.25,
                "velocity": 40
            },
            {
                "midi_note": 38,
                "start_time": 5.5,
                "duration": 0.25,
                "velocity": 40
            },
            {
                "midi_note": 38,
                "start_time": 5.75,
                "duration": 0.25,
                "velocity": 120
            },
            {
                "midi_note": 36,
                "start_time": 5.75,
                "duration": 0.25,
                "velocity": 120
            },
            {
                "midi_note": 38,
                "start_time": 6.0,
                "duration": 0.25,
                "velocity": 120
            },
            {
                "midi_note": 38,
                "start_time": 6.25,
                "duration": 0.25,
                "velocity": 40
            },
            {
                "midi_note": 38,
                "start_time": 6.5,
                "duration": 0.25,
                "velocity": 40
            },
            {
                "midi_note": 38,
                "start_time": 6.75,
                "duration": 0.25,
                "velocity": 120
            },
            {
                "midi_note": 36,
                "start_time": 6.75,
                "duration": 0.25,
                "velocity": 120
            },
            {
                "midi_note": 38,
                "start_time": 7.0,
                "duration": 0.25,
                "velocity": 120
            },
            {
                "midi_note": 38,
                "start_time": 7.25,
                "duration": 0.25,
                "velocity": 40
            },
            {
                "midi_note": 38,
                "start_time": 7.5,
                "duration": 0.25,
                "velocity": 40
            },
            {
                "midi_note": 38,
                "start_time": 7.75,
                "duration": 0.25,
                "velocity": 120
            },
            {
                "midi_note": 36,
                "start_time": 7.75,
                "duration": 0.25,
                "velocity": 120
            }
        ]
    }
]