[
    {
        "group": "Technique & Articulation",
        "subgroup": "Hi-Hat Open/Close & Cymbals",
        "title": "Ex 1: Off-beat Open Hi-Hat (Disco)",
        "bpm": 110,
        "time_signature": "4/4",
        "length_in_measures": 2,
        "events": [
            {
                "midi_note": 36,
                "start_time": 0.0,
                "duration": 0.25,
                "velocity": 120
            },
            {
                "midi_note": 42,
                "start_time": 0.0,
                "duration": 0.25,
                "velocity": 100
            },
            {
                "midi_note": 46,
                "start_time": 0.5,
                "duration": 0.25,
                "velocity": 110
            },
            {
                "midi_note": 38,
                "start_time": 1.0,
                "duration": 0.25,
                "velocity": 120
            },
            {
                "midi_note": 42,
                "start_time": 1.0,
                "duration": 0.25,
                "velocity": 0
            },
            {
                "midi_note": 46,
                "start_time": 1.5,
                "duration": 0.25,
                "velocity": 110
            },
            {
                "midi_note": 36,
                "start_time": 2.0,
                "duration": 0.25,
                "velocity": 120
            },
            {
                "midi_note": 42,
                "start_time": 2.0,
                "duration": 0.25,
                "velocity": 0
            },
            {
                "midi_note": 46,
                "start_time": 2.5,
                "duration": 0.25,
                "velocity": 110
            },
            {
                "midi_note": 38,
                "start_time": 3.0,
                "duration": 0.25,
                "velocity": 120
            },
            {
                "midi_note": 42,
                "start_time": 3.0,
                "duration": 0.25,
                "velocity": 0
            },
            {
                "midi_note": 46,
                "start_time": 3.5,
                "duration": 0.25,
                "velocity": 110
            },
            {
                "midi_note": 36,
                "start_time": 4.0,
                "duration": 0.25,
                "velocity": 120
            },
            {
                "midi_note": 42,
                "start_time": 4.0,
                "duration": 0.25,
                "velocity": 0
            },
            {
                "midi_note": 46,
                "start_time": 4.5,
                "duration": 0.25,
                "velocity": 110
            },
            {
                "midi_note": 38,
                "start_time": 5.0,
                "duration": 0.25,
                "velocity": 120
            },
            {
                "midi_note": 42,
                "start_time": 5.0,
                "duration": 0.25,
                "velocity": 0
            },
            {
                "midi_note": 46,
                "start_time": 5.5,
                "duration": 0.25,
                "velocity": 110
            },
            {
                "midi_note": 36,
                "start_time": 6.0,
                "duration": 0.25,
                "velocity": 120
            },
            {
                "midi_note": 42,
                "start_time": 6.0,
                "duration": 0.25,
                "velocity": 0
            },
            {
                "midi_note": 46,
                "start_time": 6.5,
                "duration": 0.25,
                "velocity": 110
            },
            {
                "midi_note": 38,
                "start_time": 7.0,
                "duration": 0.25,
                "velocity": 120
            },
            {
                "midi_note": 42,
                "start_time": 7.0,
                "duration": 0.25,
                "velocity": 0
            },
            {
                "midi_note": 46,
                "start_time": 7.5,
                "duration": 0.25,
                "velocity": 110
            }
        ]
    },
    {
        "group": "Technique & Articulation",
        "subgroup": "Hi-Hat Open/Close & Cymbals",
        "title": "Ex 2: The 'Bark' (Short Open)",
        "bpm": 100,
        "time_signature": "4/4",
        "length_in_measures": 2,
        "events": [
            {
                "midi_note": 36,
                "start_time": 0.0,
                "duration": 0.25,
                "velocity": 120
            },
            {
                "midi_note": 42,
                "start_time": 0.0,
                "duration": 0.25,
                "velocity": 100
            },
            {
                "midi_note": 42,
                "start_time": 0.5,
                "duration": 0.25,
                "velocity": 100
            },
            {
                "midi_note": 38,
                "start_time": 1.0,
                "duration": 0.25,
                "velocity": 120
            },
            {
                "midi_note": 46,
                "start_time": 1.5,
                "duration": 0.25,
                "velocity": 110
            },
            {
                "midi_note": 36,
                "start_time": 1.75,
                "duration": 0.25,
                "velocity": 100
            },
            {
                "midi_note": 36,
                "start_time": 2.0,
                "duration": 0.25,
                "velocity": 120
            },
            {
                "midi_note": 42,
                "start_time": 2.0,
                "duration": 0.25,
                "velocity": 0
            },
            {
                "midi_note": 42,
                "start_time": 2.5,
                "duration": 0.25,
                "velocity": 100
            },
            {
                "midi_note": 38,
                "start_time": 3.0,
                "duration": 0.25,
                "velocity": 120
            },
            {
                "midi_note": 42,
                "start_time": 3.5,
                "duration": 0.25,
                "velocity": 100
            },
            {
                "midi_note": 36,
                "start_time": 4.0,
                "duration": 0.25,
                "velocity": 120
            },
            {
                "midi_note": 42,
                "start_time": 4.0,
                "duration": 0.25,
                "velocity": 100
            },
            {
                "midi_note": 42,
                "start_time": 4.5,
                "duration": 0.25,
                "velocity": 100
            },
            {
                "midi_note": 38,
                "start_time": 5.0,
                "duration": 0.25,
                "velocity": 120
            },
            {
                "midi_note": 46,
                "start_time": 5.5,
                "duration": 0.25,
                "velocity": 110
            },
            {
                "midi_note": 36,
                "start_time": 5.75,
                "duration": 0.25,
                "velocity": 100
            },
            {
                "midi_note": 36,
                "start_time": 6.0,
                "duration": 0.25,
                "velocity": 120
            },
            {
                "midi_note": 42,
                "start_time": 6.0,
                "duration": 0.25,
                "velocity": 0
            },
            {
                "midi_note": 42,
                "start_time": 6.5,
                "duration": 0.25,
                "velocity": 100
            },
            {
                "midi_note": 38,
                "start_time": 7.0,
                "duration": 0.25,
                "velocity": 120
            },
            {
                "midi_note": 42,
                "start_time": 7.5,
                "duration": 0.25,
                "velocity": 100
            }
        ]
    },
    {
        "group": "Technique & Articulation",
        "subgroup": "Hi-Hat Open/Close & Cymbals",
        "title": "Ex 3: Crash Accent on 'and' of 4",
        "bpm": 100,
        "time_signature": "4/4",
        "length_in_measures": 2,
        "events": [
            {
                "midi_note": 36,
                "start_time": 0.0,
                "duration": 0.25,
                "velocity": 120
            },
            {
                "midi_note": 42,
                "start_time": 0.0,
                "duration": 0.25,
                "velocity": 100
            },
            {
                "midi_note": 42,
                "start_time": 0.5,
                "duration": 0.25,
                "velocity": 100
            },
            {
                "midi_note": 38,
                "start_time": 1.0,
                "duration": 0.25,
                "velocity": 120
            },
            {
                "midi_note": 42,
                "start_time": 1.5,
                "duration": 0.25,
                "velocity": 100
            },
            {
                "midi_note": 36,
                "start_time": 2.0,
                "duration": 0.25,
                "velocity": 120
            },
            {
                "midi_note": 42,
                "start_time": 2.0,
                "duration": 0.25,
                "velocity": 100
            },
            {
                "midi_note": 42,
                "start_time": 2.5,
                "duration": 0.25,
                "velocity": 100
            },
            {
                "midi_note": 38,
                "start_time": 3.0,
                "duration": 0.25,
                "velocity": 120
            },
            {
                "midi_note": 49,
                "start_time": 3.5,
                "duration": 0.25,
                "velocity": 120
            },
            {
                "midi_note": 36,
                "start_time": 3.5,
                "duration": 0.25,
                "velocity": 110
            },
            {
                "midi_note": 36,
                "start_time": 4.0,
                "duration": 0.25,
                "velocity": 120
            },
            {
                "midi_note": 49,
                "start_time": 4.0,
                "duration": 0.25,
                "velocity": 120
            },
            {
                "midi_note": 42,
                "start_time": 4.5,
                "duration": 0.25,
                "velocity": 100
            },
            {
                "midi_note": 38,
                "start_time": 5.0,
                "duration": 0.25,
                "velocity": 120
            },
            {
                "midi_note": 42,
                "start_time": 5.5,
                "duration": 0.25,
                "velocity": 100
            },
            {
                "midi_note": 36,
                "start_time": 6.0,
                "duration": 0.25,
                "velocity": 120
            },
            {
                "midi_note": 42,
                "start_time": 6.0,
                "duration": 0.25,
                "velocity": 100
            },
            {
                "midi_note": 42,
                "start_time": 6.5,
                "duration": 0.25,
                "velocity": 100
            },
            {
                "midi_note": 38,
                "start_time": 7.0,
                "duration": 0.25,
                "velocity": 120
            },
            {
                "midi_note": 49,
                "start_time": 7.5,
                "duration": 0.25,
                "velocity": 120
            },
            {
                "midi_note": 36,
                "start_time": 7.5,
                "duration": 0.25,
                "velocity": 110
            }
        ]
    },
    {
        "group": "Technique & Articulation",
        "subgroup": "Hi-Hat Open/Close & Cymbals",
        "title": "Ex 4: Ride Bell Accents",
        "bpm": 100,
        "time_signature": "4/4",
        "length_in_measures": 2,
        "events": [
            {
                "midi_note": 36,
                "start_time": 0.0,
                "duration": 0.25,
                "velocity": 120
            },
            {
                "midi_note": 51,
                "start_time": 0.0,
                "duration": 0.25,
                "velocity": 90
            },
            {
                "midi_note": 53,
                "start_time": 0.5,
                "duration": 0.25,
                "velocity": 120
            },
            {
                "midi_note": 38,
                "start_time": 1.0,
                "duration": 0.25,
                "velocity": 120
            },
            {
                "midi_note": 51,
                "start_time": 1.5,
                "duration": 0.25,
                "velocity": 90
            },
            {
                "midi_note": 36,
                "start_time": 2.0,
                "duration": 0.25,
                "velocity": 120
            },
            {
                "midi_note": 51,
                "start_time": 2.0,
                "duration": 0.25,
                "velocity": 90
            },
            {
                "midi_note": 53,
                "start_time": 2.5,
                "duration": 0.25,
                "velocity": 120
            },
            {
                "midi_note": 38,
                "start_time": 3.0,
                "duration": 0.25,
                "velocity": 120
            },
            {
                "midi_note": 51,
                "start_time": 3.5,
                "duration": 0.25,
                "velocity": 90
            },
            {
                "midi_note": 36,
                "start_time": 4.0,
                "duration": 0.25,
                "velocity": 120
            },
            {
                "midi_note": 51,
                "start_time": 4.0,
                "duration": 0.25,
                "velocity": 90
            },
            {
                "midi_note": 53,
                "start_time": 4.5,
                "duration": 0.25,
                "velocity": 120
            },
            {
                "midi_note": 38,
                "start_time": 5.0,
                "duration": 0.25,
                "velocity": 120
            },
            {
                "midi_note": 51,
                "start_time": 5.5,
                "duration": 0.25,
                "velocity": 90
            },
            {
                "midi_note": 36,
                "start_time": 6.0,
                "duration": 0.25,
                "velocity": 120
            },
            {
                "midi_note": 51,
                "start_time": 6.0,
                "duration": 0.25,
                "velocity": 90
            },
            {
                "midi_note": 53,
                "start_time": 6.5,
                "duration": 0.25,
                "velocity": 120
            },
            {
                "midi_note": 38,
                "start_time": 7.0,
                "duration": 0.25,
                "velocity": 120
            },
            {
                "midi_note": 51,
                "start_time": 7.5,
                "duration": 0.25,
                "velocity": 90
            }
        ]
    },
    {
        "group": "Technique & Articulation",
        "subgroup": "Dynamics & Ghost Notes",
        "title": "Ex 5: Ghost Note Funk (James Brown Style)",
        "bpm": 95,
        "time_signature": "4/4",
        "length_in_measures": 2,
        "events": [
            {
                "midi_note": 36,
                "start_time": 0.0,
                "duration": 0.25,
                "velocity": 120
            },
            {
                "midi_note": 42,
                "start_time": 0.0,
                "duration": 0.25,
                "velocity": 100
            },
            {
                "midi_note": 38,
                "start_time": 0.5,
                "duration": 0.25,
                "velocity": 40
            },
            {
                "midi_note": 42,
                "start_time": 0.5,
                "duration": 0.25,
                "velocity": 100
            },
            {
                "midi_note": 38,
                "start_time": 1.0,
                "duration": 0.25,
                "velocity": 120
            },
            {
                "midi_note": 38,
                "start_time": 1.5,
                "duration": 0.25,
                "velocity": 40
            },
            {
                "midi_note": 42,
                "start_time": 1.5,
                "duration": 0.25,
                "velocity": 100
            },
            {
                "midi_note": 36,
                "start_time": 2.0,
                "duration": 0.25,
                "velocity": 120
            },
            {
                "midi_note": 42,
                "start_time": 2.0,
                "duration": 0.25,
                "velocity": 100
            },
            {
                "midi_note": 38,
                "start_time": 2.5,
                "duration": 0.25,
                "velocity": 40
            },
            {
                "midi_note": 42,
                "start_time": 2.5,
                "duration": 0.25,
                "velocity": 100
            },
            {
                "midi_note": 38,
                "start_time": 3.0,
                "duration": 0.25,
                "velocity": 120
            },
            {
                "midi_note": 38,
                "start_time": 3.5,
                "duration": 0.25,
                "velocity": 40
            },
            {
                "midi_note": 42,
                "start_time": 3.5,
                "duration": 0.25,
                "velocity": 100
            },
            {
                "midi_note": 36,
                "start_time": 4.0,
                "duration": 0.25,
                "velocity": 120
            },
            {
                "midi_note": 42,
                "start_time": 4.0,
                "duration": 0.25,
                "velocity": 100
            },
            {
                "midi_note": 38,
                "start_time": 4.5,
                "duration": 0.25,
                "velocity": 40
            },
            {
                "midi_note": 42,
                "start_time": 4.5,
                "duration": 0.25,
                "velocity": 100
            },
            {
                "midi_note": 38,
                "start_time": 5.0,
                "duration": 0.25,
                "velocity": 120
            },
            {
                "midi_note": 38,
                "start_time": 5.5,
                "duration": 0.25,
                "velocity": 40
            },
            {
                "midi_note": 42,
                "start_time": 5.5,
                "duration": 0.25,
                "velocity": 100
            },
            {
                "midi_note": 36,
                "start_time": 6.0,
                "duration": 0.25,
                "velocity": 120
            },
            {
                "midi_note": 42,
                "start_time": 6.0,
                "duration": 0.25,
                "velocity": 100
            },
            {
                "midi_note": 38,
                "start_time": 6.5,
                "duration": 0.25,
                "velocity": 40
            },
            {
                "midi_note": 42,
                "start_time": 6.5,
                "duration": 0.25,
                "velocity": 100
            },
            {
                "midi_note": 38,
                "start_time": 7.0,
                "duration": 0.25,
                "velocity": 120
            },
            {
                "midi_note": 38,
                "start_time": 7.5,
                "duration": 0.25,
                "velocity": 40
            },
            {
                "midi_note": 42,
                "start_time": 7.5,
                "duration": 0.25,
                "velocity": 100
            }
        ]
    },
    {
        "group": "Technique & Articulation",
        "subgroup": "Dynamics & Ghost Notes",
        "title": "Ex 6: Half-Time Shuffle (Purdie Shuffle Lite)",
        "bpm": 90,
        "time_signature": "4/4",
        "length_in_measures": 2,
        "events": [
            {
                "midi_note": 36,
                "start_time": 0.0,
                "duration": 0.166,
                "velocity": 120
            },
            {
                "midi_note": 42,
                "start_time": 0.0,
                "duration": 0.166,
                "velocity": 100
            },
            {
                "midi_note": 38,
                "start_time": 0.332,
                "duration": 0.166,
                "velocity": 40
            },
            {
                "midi_note": 42,
                "start_time": 0.332,
                "duration": 0.166,
                "velocity": 80
            },
            {
                "midi_note": 42,
                "start_time": 0.5,
                "duration": 0.166,
                "velocity": 100
            },
            {
                "midi_note": 38,
                "start_time": 0.832,
                "duration": 0.166,
                "velocity": 40
            },
            {
                "midi_note": 42,
                "start_time": 0.832,
                "duration": 0.166,
                "velocity": 80
            },
            {
                "midi_note": 38,
                "start_time": 1.0,
                "duration": 0.166,
                "velocity": 120
            },
            {
                "midi_note": 42,
                "start_time": 1.0,
                "duration": 0.166,
                "velocity": 100
            },
            {
                "midi_note": 38,
                "start_time": 1.332,
                "duration": 0.166,
                "velocity": 40
            },
            {
                "midi_note": 42,
                "start_time": 1.332,
                "duration": 0.166,
                "velocity": 80
            },
            {
                "midi_note": 42,
                "start_time": 1.5,
                "duration": 0.166,
                "velocity": 100
            },
            {
                "midi_note": 38,
                "start_time": 1.832,
                "duration": 0.166,
                "velocity": 40
            },
            {
                "midi_note": 42,
                "start_time": 1.832,
                "duration": 0.166,
                "velocity": 80
            },
            {
                "midi_note": 36,
                "start_time": 2.0,
                "duration": 0.166,
                "velocity": 120
            },
            {
                "midi_note": 42,
                "start_time": 2.0,
                "duration": 0.166,
                "velocity": 100
            },
            {
                "midi_note": 38,
                "start_time": 2.332,
                "duration": 0.166,
                "velocity": 40
            },
            {
                "midi_note": 42,
                "start_time": 2.332,
                "duration": 0.166,
                "velocity": 80
            },
            {
                "midi_note": 42,
                "start_time": 2.5,
                "duration": 0.166,
                "velocity": 100
            },
            {
                "midi_note": 38,
                "start_time": 2.832,
                "duration": 0.166,
                "velocity": 40
            },
            {
                "midi_note": 42,
                "start_time": 2.832,
                "duration": 0.166,
                "velocity": 80
            },
            {
                "midi_note": 38,
                "start_time": 3.0,
                "duration": 0.166,
                "velocity": 120
            },
            {
                "midi_note": 42,
                "start_time": 3.0,
                "duration": 0.166,
                "velocity": 100
            },
            {
                "midi_note": 38,
                "start_time": 3.332,
                "duration": 0.166,
                "velocity": 40
            },
            {
                "midi_note": 42,
                "start_time": 3.332,
                "duration": 0.166,
                "velocity": 80
            },
            {
                "midi_note": 42,
                "start_time": 3.5,
                "duration": 0.166,
                "velocity": 100
            },
            {
                "midi_note": 38,
                "start_time": 3.832,
                "duration": 0.166,
                "velocity": 40
            },
            {
                "midi_note": 42,
                "start_time": 3.832,
                "duration": 0.166,
                "velocity": 80
            },
            {
                "midi_note": 36,
                "start_time": 4.0,
                "duration": 0.166,
                "velocity": 120
            },
            {
                "midi_note": 42,
                "start_time": 4.0,
                "duration": 0.166,
                "velocity": 100
            },
            {
                "midi_note": 38,
                "start_time": 4.332,
                "duration": 0.166,
                "velocity": 40
            },
            {
                "midi_note": 42,
                "start_time": 4.332,
                "duration": 0.166,
                "velocity": 80
            },
            {
                "midi_note": 42,
                "start_time": 4.5,
                "duration": 0.166,
                "velocity": 100
            },
            {
                "midi_note": 38,
                "start_time": 4.832,
                "duration": 0.166,
                "velocity": 40
            },
            {
                "midi_note": 42,
                "start_time": 4.832,
                "duration": 0.166,
                "velocity": 80
            },
            {
                "midi_note": 38,
                "start_time": 5.0,
                "duration": 0.166,
                "velocity": 120
            },
            {
                "midi_note": 42,
                "start_time": 5.0,
                "duration": 0.166,
                "velocity": 100
            },
            {
                "midi_note": 38,
                "start_time": 5.332,
                "duration": 0.166,
                "velocity": 40
            },
            {
                "midi_note": 42,
                "start_time": 5.332,
                "duration": 0.166,
                "velocity": 80
            },
            {
                "midi_note": 42,
                "start_time": 5.5,
                "duration": 0.166,
                "velocity": 100
            },
            {
                "midi_note": 38,
                "start_time": 5.832,
                "duration": 0.166,
                "velocity": 40
            },
            {
                "midi_note": 42,
                "start_time": 5.832,
                "duration": 0.166,
                "velocity": 80
            },
            {
                "midi_note": 36,
                "start_time": 6.0,
                "duration": 0.166,
                "velocity": 120
            },
            {
                "midi_note": 42,
                "start_time": 6.0,
                "duration": 0.166,
                "velocity": 100
            },
            {
                "midi_note": 38,
                "start_time": 6.332,
                "duration": 0.166,
                "velocity": 40
            },
            {
                "midi_note": 42,
                "start_time": 6.332,
                "duration": 0.166,
                "velocity": 80
            },
            {
                "midi_note": 42,
                "start_time": 6.5,
                "duration": 0.166,
                "velocity": 100
            },
            {
                "midi_note": 38,
                "start_time": 6.832,
                "duration": 0.166,
                "velocity": 40
            },
            {
                "midi_note": 42,
                "start_time": 6.832,
                "duration": 0.166,
                "velocity": 80
            },
            {
                "midi_note": 38,
                "start_time": 7.0,
                "duration": 0.166,
                "velocity": 120
            },
            {
                "midi_note": 42,
                "start_time": 7.0,
                "duration": 0.166,
                "velocity": 100
            },
            {
                "midi_note": 38,
                "start_time": 7.332,
                "duration": 0.166,
                "velocity": 40
            },
            {
                "midi_note": 42,
                "start_time": 7.332,
                "duration": 0.166,
                "velocity": 80
            },
            {
                "midi_note": 42,
                "start_time": 7.5,
                "duration": 0.166,
                "velocity": 100
            },
            {
                "midi_note": 38,
                "start_time": 7.832,
                "duration": 0.166,
                "velocity": 40
            },
            {
                "midi_note": 42,
                "start_time": 7.832,
                "duration": 0.166,
                "velocity": 80
            }
        ]
    },
    {
        "group": "Technique & Articulation",
        "subgroup": "Dynamics & Ghost Notes",
        "title": "Ex 7: Linear Funk (David Garibaldi Style)",
        "bpm": 100,
        "time_signature": "4/4",
        "length_in_measures": 2,
        "events": [
            {
                "midi_note": 42,
                "start_time": 0.0,
                "duration": 0.25,
                "velocity": 100
            },
            {
                "midi_note": 36,
                "start_time": 0.25,
                "duration": 0.25,
                "velocity": 120
            },
            {
                "midi_note": 38,
                "start_time": 0.5,
                "duration": 0.25,
                "velocity": 40
            },
            {
                "midi_note": 36,
                "start_time": 0.75,
                "duration": 0.25,
                "velocity": 120
            },
            {
                "midi_note": 38,
                "start_time": 1.0,
                "duration": 0.25,
                "velocity": 120
            },
            {
                "midi_note": 42,
                "start_time": 1.25,
                "duration": 0.25,
                "velocity": 100
            },
            {
                "midi_note": 36,
                "start_time": 1.5,
                "duration": 0.25,
                "velocity": 120
            },
            {
                "midi_note": 38,
                "start_time": 1.75,
                "duration": 0.25,
                "velocity": 40
            },
            {
                "midi_note": 42,
                "start_time": 2.0,
                "duration": 0.25,
                "velocity": 100
            },
            {
                "midi_note": 36,
                "start_time": 2.25,
                "duration": 0.25,
                "velocity": 120
            },
            {
                "midi_note": 38,
                "start_time": 2.5,
                "duration": 0.25,
                "velocity": 40
            },
            {
                "midi_note": 36,
                "start_time": 2.75,
                "duration": 0.25,
                "velocity": 120
            },
            {
                "midi_note": 38,
                "start_time": 3.0,
                "duration": 0.25,
                "velocity": 120
            },
            {
                "midi_note": 42,
                "start_time": 3.25,
                "duration": 0.25,
                "velocity": 100
            },
            {
                "midi_note": 36,
                "start_time": 3.5,
                "duration": 0.25,
                "velocity": 120
            },
            {
                "midi_note": 38,
                "start_time": 3.75,
                "duration": 0.25,
                "velocity": 40
            },
            {
                "midi_note": 42,
                "start_time": 4.0,
                "duration": 0.25,
                "velocity": 100
            },
            {
                "midi_note": 36,
                "start_time": 4.25,
                "duration": 0.25,
                "velocity": 120
            },
            {
                "midi_note": 38,
                "start_time": 4.5,
                "duration": 0.25,
                "velocity": 40
            },
            {
                "midi_note": 36,
                "start_time": 4.75,
                "duration": 0.25,
                "velocity": 120
            },
            {
                "midi_note": 38,
                "start_time": 5.0,
                "duration": 0.25,
                "velocity": 120
            },
            {
                "midi_note": 42,
                "start_time": 5.25,
                "duration": 0.25,
                "velocity": 100
            },
            {
                "midi_note": 36,
                "start_time": 5.5,
                "duration": 0.25,
                "velocity": 120
            },
            {
                "midi_note": 38,
                "start_time": 5.75,
                "duration": 0.25,
                "velocity": 40
            },
            {
                "midi_note": 42,
                "start_time": 6.0,
                "duration": 0.25,
                "velocity": 100
            },
            {
                "midi_note": 36,
                "start_time": 6.25,
                "duration": 0.25,
                "velocity": 120
            },
            {
                "midi_note": 38,
                "start_time": 6.5,
                "duration": 0.25,
                "velocity": 40
            },
            {
                "midi_note": 36,
                "start_time": 6.75,
                "duration": 0.25,
                "velocity": 120
            },
            {
                "midi_note": 38,
                "start_time": 7.0,
                "duration": 0.25,
                "velocity": 120
            },
            {
                "midi_note": 42,
                "start_time": 7.25,
                "duration": 0.25,
                "velocity": 100
            },
            {
                "midi_note": 36,
                "start_time": 7.5,
                "duration": 0.25,
                "velocity": 120
            },
            {
                "midi_note": 38,
                "start_time": 7.75,
                "duration": 0.25,
                "velocity": 40
            }
        ]
    },
    {
        "group": "Technique & Articulation",
        "subgroup": "Dynamics & Ghost Notes",
        "title": "Ex 8: Accented 16ths (Paradiddle-diddle)",
        "bpm": 100,
        "time_signature": "4/4",
        "length_in_measures": 2,
        "events": [
            {
                "midi_note": 38,
                "start_time": 0.0,
                "duration": 0.25,
                "velocity": 120
            },
            {
                "midi_note": 36,
                "start_time": 0.0,
                "duration": 0.25,
                "velocity": 120
            },
            {
                "midi_note": 38,
                "start_time": 0.25,
                "duration": 0.25,
                "velocity": 40
            },
            {
                "midi_note": 38,
                "start_time": 0.5,
                "duration": 0.25,
                "velocity": 120
            },
            {
                "midi_note": 38,
                "start_time": 0.75,
                "duration": 0.25,
                "velocity": 40
            },
            {
                "midi_note": 38,
                "start_time": 1.0,
                "duration": 0.25,
                "velocity": 40
            },
            {
                "midi_note": 38,
                "start_time": 1.25,
                "duration": 0.25,
                "velocity": 40
            },
            {
                "midi_note": 38,
                "start_time": 1.5,
                "duration": 0.25,
                "velocity": 120
            },
            {
                "midi_note": 36,
                "start_time": 1.5,
                "duration": 0.25,
                "velocity": 120
            },
            {
                "midi_note": 38,
                "start_time": 1.75,
                "duration": 0.25,
                "velocity": 40
            },
            {
                "midi_note": 38,
                "start_time": 2.0,
                "duration": 0.25,
                "velocity": 120
            },
            {
                "midi_note": 38,
                "start_time": 2.25,
                "duration": 0.25,
                "velocity": 40
            },
            {
                "midi_note": 38,
                "start_time": 2.5,
                "duration": 0.25,
                "velocity": 40
            },
            {
                "midi_note": 38,
                "start_time": 2.75,
                "duration": 0.25,
                "velocity": 40
            },
            {
                "midi_note": 38,
                "start_time": 3.0,
                "duration": 0.25,
                "velocity": 120
            },
            {
                "midi_note": 36,
                "start_time": 3.0,
                "duration": 0.25,
                "velocity": 120
            },
            {
                "midi_note": 38,
                "start_time": 3.25,
                "duration": 0.25,
                "velocity": 40
            },
            {
                "midi_note": 38,
                "start_time": 3.5,
                "duration": 0.25,
                "velocity": 120
            },
            {
                "midi_note": 38,
                "start_time": 3.75,
                "duration": 0.25,
                "velocity": 40
            },
            {
                "midi_note": 38,
                "start_time": 4.0,
                "duration": 0.25,
                "velocity": 40
            },
            {
                "midi_note": 38,
                "start_time": 4.25,
                "duration": 0.25,
                "velocity": 40
            },
            {
                "midi_note": 38,
                "start_time": 4.5,
                "duration": 0.25,
                "velocity": 120
            },
            {
                "midi_note": 36,
                "start_time": 4.5,
                "duration": 0.25,
                "velocity": 120
            },
            {
                "midi_note": 38,
                "start_time": 4.75,
                "duration": 0.25,
                "velocity": 40
            },
            {
                "midi_note": 38,
                "start_time": 5.0,
                "duration": 0.25,
                "velocity": 120
            },
            {
                "midi_note": 38,
                "start_time": 5.25,
                "duration": 0.25,
                "velocity": 40
            },
            {
                "midi_note": 38,
                "start_time": 5.5,
                "duration": 0.25,
                "velocity": 40
            },
            {
                "midi_note": 38,
                "start_time": 5.75,
                "duration": 0.25,
                "velocity": 40
            },
            {
                "midi_note": 38,
                "start_time": 6.0,
                "duration": 0.25,
                "velocity": 120
            },
            {
                "midi_note": 36,
                "start_time": 6.0,
                "duration": 0.25,
                "velocity": 120
            },
            {
                "midi_note": 38,
                "start_time": 6.25,
                "duration": 0.25,
                "velocity": 40
            },
            {
                "midi_note": 38,
                "start_time": 6.5,
                "duration": 0.25,
                "velocity": 120
            },
            {
                "midi_note": 38,
                "start_time": 6.75,
                "duration": 0.25,
                "velocity": 40
            },
            {
                "midi_note": 38,
                "start_time": 7.0,
                "duration": 0.25,
                "velocity": 40
            },
            {
                "midi_note": 38,
                "start_time": 7.25,
                "duration": 0.25,
                "velocity": 40
            },
            {
                "midi_note": 38,
                "start_time": 7.5,
                "duration": 0.25,
                "velocity": 120
            },
            {
                "midi_note": 36,
                "start_time": 7.5,
                "duration": 0.25,
                "velocity": 120
            }
        ]
    }
]